
<svg xmlns="http://www.w3.org/2000/svg" viewBox="0 0 900 450"><rect fill="#D22730" width="900" height="450"/><rect fill="#FFFFFF" width="900" height="300"/><rect fill="#D22730" y="300" width="900" height="150"/><rect fill="#4AA657" width="157.5" height="450"/><path d="M78.75,31.6L70.31,52.7L47.89,50.14L62.04,67.8L53.59,88.9L73.52,78.95L87.68,96.61L86.02,74.21L105.94,64.26L83.53,61.7L78.75,31.6zM78.75,202.46L70.31,223.56L47.89,221L62.04,238.66L53.59,259.76L73.52,249.81L87.68,267.47L86.02,245.07L105.94,235.12L83.53,232.56L78.75,202.46zM78.75,373.34L70.31,394.44L47.89,391.88L62.04,409.54L53.59,430.64L73.52,420.69L87.68,438.35L86.02,415.95L105.94,406L83.53,403.44L78.75,373.34z" fill="#D22730"/></svg>
