
<svg xmlns="http://www.w3.org/2000/svg" viewBox="0 0 1235 650"><path fill="#B22234" d="M0,0 1235,0 1235,650 0,650z"/><path d="M0,75 1235,75M0,150 1235,150M0,225 1235,225M0,300 1235,300M0,375 1235,375M0,450 1235,450M0,525 1235,525M0,600 1235,600" stroke="white" stroke-width="50"/><rect width="494" height="350" fill="#3C3B6E"/><g fill="white"><g id="s18"><g id="s9"><g id="s5"><g id="s4"><path id="s" d="M247,100 260.4,144.7 307,144.7 269.3,172.5 282.7,217.3 247,192.5 211.3,217.3 224.7,172.5 187,144.7 233.6,144.7z"/><use href="#s" transform="translate(247,175) rotate(216)"/></g><use href="#s4" transform="translate(0,87.5)"/></g><use href="#s5" transform="translate(0,87.5)"/></g><use href="#s9" transform="translate(0,87.5)"/></g><use href="#s18" transform="translate(247,0)"/></g></svg>
